# xmcd CD database file
#
# Track frame offsets:
#	150
#	13618
#	27084
#	42478
#	54278
#	66995
#	79334
#	90930
#	117468
#	137429
#	151635
#	164856
#	181675
#	193185
#	209861
#	229182
#	248548
#	259690
#	272740
#	283750
#
# Disc length: 3936 seconds
#
# Revision: 4
# Processed by: cddbd v1.5.2PL0 Copyright (c) Steve Scherf et al.
# Submitted via: CDex 1.51
#
DISCID=180f5e14
DTITLE=Miles Davis - Vol.3 - Out of the Blue - Early Miles - Moon Dreams 1947-1948
DYEAR=1900
DGENRE=Jazz
TTITLE0=Bongo Beep (Charlie Parker) Original Charlie Parker Quintet with J.J. Johnson
TTITLE1=Crazeology (B.Harris) Original Charlie Parker Quintet with J.J. Johnson
TTITLE2=How Deep Is The Ocean ¿ (Irving Berlin) Original Charlie Parker Quintet with J.J. Johnson
TTITLE3=Another Hair-Do (Charlie Parker) Charlie Parker All Stars
TTITLE4=Bluebird (Charlie Parker) Charlie Parker All Stars
TTITLE5=Klaunstance (Charlie Parker) Charlie Parker All Stars
TTITLE6=Bird Gets The Worm (Charlie Parker) Charlie Parker All Stars
TTITLE7=Godchild (George Wallington) Miles Davis Nonet
TTITLE8=S'il Vous Plait (John Lewis) Miles Davis Nonet
TTITLE9=Moon Dreams (Johnny Mercer - Chummy McGregor) Miles Davis Nonet
TTITLE10=Hallucinations [aka Budo] (Bud Powell - Miles Davis) Miles Davis Nonet
TTITLE11=Why Do I Love You ¿ (Oscar Hammerstein II - Jerome Kern) Miles Davis Nonet
TTITLE12=Move [Mood] (Denzil Best) Miles Davis Nonet
TTITLE13=Moon Dreams (Johnny Mercer - Chummy McGregor) Miles Davis Nonet
TTITLE14=Hallucinations [Budo] (Bud Powell - Miles Davis) Miles Davis Nonet
TTITLE15=Darn That Dream (Eddie De Lange - James Van Heusen) Charlie Parker All Stars
TTITLE16=Barbados (Charlie Parker) Charlie Parker All Stars
TTITLE17=Ah-Leu-Cha (Charlie Parker) Charlie Parker All Stars
TTITLE18=Constellation (Charlie Parker) Charlie Parker All Stars
TTITLE19=Perhaps (Charlie Parker) Charlie Parker All Stars
EXTD=
EXTT0=
EXTT1=
EXTT2=
EXTT3=
EXTT4=
EXTT5=
EXTT6=
EXTT7=
EXTT8=
EXTT9=
EXTT10=
EXTT11=
EXTT12=
EXTT13=
EXTT14=
EXTT15=
EXTT16=
EXTT17=
EXTT18=
EXTT19=
PLAYORDER=
